<svg width="21" height="16" viewBox="0 0 21 16" fill="none" xmlns="http://www.w3.org/2000/svg">
<path d="M1.85505 14.4892C0.695933 13.2142 0.000460016 11.8233 0.000460218 9.50503C0.000460573 5.4481 2.89826 1.85483 6.95519 0.000237223L7.9984 1.50709C4.1733 3.59351 3.36191 6.25949 3.13009 7.99817C3.70965 7.65043 4.52103 7.53452 5.33242 7.65043C7.41883 7.88226 9.0416 9.50503 9.0416 11.7074C9.0416 12.7506 8.57795 13.7938 7.88248 14.6052C7.0711 15.4165 6.1438 15.7643 4.98468 15.7643C3.70965 15.7643 2.55053 15.1847 1.85505 14.4892ZM13.4463 14.4892C12.2871 13.2142 11.5917 11.8233 11.5917 9.50503C11.5917 5.44811 14.4895 1.85483 18.5464 0.000238236L19.5896 1.50709C15.7645 3.59351 14.9531 6.25949 14.7213 7.99817C15.3009 7.65044 16.1122 7.53452 16.9236 7.65044C19.01 7.88226 20.6328 9.62094 20.6328 11.7074C20.6328 12.7506 20.1692 13.7938 19.4737 14.6052C18.6623 15.4165 17.735 15.7643 16.5759 15.7643C15.3009 15.7643 14.1417 15.1847 13.4463 14.4892Z" fill="#0078AD"/>
</svg>
