<svg width="154" height="32" viewBox="0 0 154 32" fill="none" xmlns="http://www.w3.org/2000/svg">
<g clip-path="url(#clip0_1384_133)">
<path d="M40.6935 20.2892V12.7089H39.8464C38.4926 12.7089 37.8835 12.0998 37.8835 11.0173V10.746C37.8835 9.6302 38.4926 8.98529 39.8132 8.98529H40.6935V6.88676C40.6935 5.32822 41.4715 4.5835 42.8253 4.5835H43.2655C44.5169 4.5835 45.364 5.12348 45.364 6.88676V8.98529H48.2406C49.5944 8.98529 50.1702 9.5611 50.1702 10.6436V10.9482C50.1702 12.0973 49.5611 12.7089 48.2073 12.7089H45.2975V19.7492C45.2975 21.3743 45.8042 22.1855 47.1247 22.1855C48.0716 22.1855 48.7498 21.7121 49.19 21.0697C49.3589 21.0032 50.3749 21.6788 50.3749 22.9303C50.3749 23.6417 50.1036 24.2508 49.5636 24.7575C48.8189 25.5022 47.6008 25.9757 46.0089 25.9757C42.3877 25.9757 40.6961 24.0461 40.6961 20.2892" fill="#0078AD"/>
<path d="M60.5041 12.3353C57.8298 12.3353 55.9002 14.4005 55.9002 17.2438C55.9002 20.087 57.8298 22.2188 60.5041 22.2188C63.1785 22.2188 65.0723 20.1203 65.0723 17.3129C65.0723 14.5054 63.1759 12.3378 60.5041 12.3378M60.5374 8.61421C65.7505 8.61421 69.3052 12.1664 69.3052 17.3129C69.3052 22.4594 65.7172 25.9783 60.4709 25.9783C55.2246 25.9783 51.7031 22.4594 51.7031 17.2463C51.7031 12.0333 55.2911 8.61421 60.5374 8.61421Z" fill="#0078AD"/>
<path d="M80.0665 12.3353C77.3922 12.3353 75.4651 14.4005 75.4651 17.2438C75.4651 20.087 77.3947 22.2188 80.0665 22.2188C82.7383 22.2188 84.6372 20.1203 84.6372 17.3129C84.6372 14.5054 82.7409 12.3378 80.0665 12.3378M80.1024 8.61421C85.3154 8.61421 88.8701 12.1664 88.8701 17.3129C88.8701 22.4594 85.2821 25.9783 80.0358 25.9783C74.7895 25.9783 71.2681 22.4594 71.2681 17.2463C71.2681 12.0333 74.856 8.61421 80.1024 8.61421Z" fill="#0078AD"/>
<path d="M91.7083 23.3679V2.51824C91.7083 2.3826 92.5528 1.97569 93.5022 1.97569C94.9251 1.97569 96.4811 2.72041 96.4811 5.80167V23.3679C96.4811 25.0928 95.6008 25.6353 94.3826 25.6353H93.8759C92.6219 25.6353 91.7083 25.1286 91.7083 23.3679Z" fill="#0078AD"/>
<path d="M99.2604 22.2521C99.2604 21.0339 100.581 20.2559 100.717 20.3557C101.832 21.6072 103.729 22.5899 106.165 22.5899C108.028 22.5899 109.042 21.9475 109.042 20.8983C109.042 19.611 107.721 19.3756 105.523 18.8996C103.255 18.4261 99.7338 17.6814 99.7338 13.9578C99.7338 10.7409 102.342 8.60909 106.605 8.60909C109.958 8.60909 112.02 9.52271 112.868 10.81C113.139 11.2169 113.274 11.6903 113.274 12.1638C113.274 13.4152 111.818 14.2623 111.752 14.1599C110.636 12.8727 108.842 11.9258 106.912 11.9258C105.085 11.9258 104.102 12.604 104.102 13.6532C104.102 14.8381 105.387 15.0736 107.621 15.5829C109.958 16.0896 113.681 16.8343 113.681 20.5579C113.681 23.8746 111.04 25.8708 106.403 25.8708C103.795 25.8708 101.901 25.364 100.717 24.6193C99.7697 23.977 99.2604 23.1631 99.2604 22.2495" fill="#0078AD"/>
<path d="M124.118 11.8951C121.85 11.8951 120.156 13.5202 119.852 15.8209H127.974C127.839 13.4178 126.383 11.8951 124.118 11.8951ZM124.151 8.61164C129.06 8.61164 132.376 12.0282 132.376 16.8701V17.1747C132.34 17.9859 132.105 18.4261 131.225 18.4261H119.785L119.885 18.9661C120.394 21.1337 122.188 22.5208 124.624 22.5208C127.061 22.5208 128.517 21.4383 129.262 20.1177C129.295 20.0512 131.596 20.2534 131.596 22.1472C131.596 23.0608 130.953 24.0102 129.768 24.7217C128.55 25.4664 126.79 25.9731 124.489 25.9731C119.107 25.9731 115.588 22.6206 115.588 17.3743C115.588 12.128 119.176 8.60909 124.151 8.60909" fill="#0078AD"/>
<path d="M137.594 30.6795L140.302 24.4504C139.557 24.3148 139.051 24.0793 138.779 23.3679L133.093 10.2009C132.993 9.92963 134.244 8.81382 135.701 8.778C136.852 8.778 137.799 9.35381 138.408 11.1811L141.927 20.6577L145.108 11.2143C145.684 9.35125 146.7 8.77544 147.782 8.77544C149.103 8.77544 150.457 9.8938 150.354 10.1292L142.841 29.6584C142.129 31.4523 141.182 31.9949 140.133 31.9949C138.746 31.9949 137.495 30.9124 137.594 30.6743" fill="#0078AD"/>
<path d="M149.899 22.81H150.482C150.702 22.81 150.892 22.7511 150.892 22.4619C150.892 22.1727 150.702 22.1216 150.482 22.1216H149.899V22.81ZM149.218 21.9168C149.218 21.6891 149.385 21.5765 149.559 21.5765H150.521C151.202 21.5765 151.619 21.7812 151.619 22.4901C151.619 23.0505 151.271 23.3295 150.915 23.3525L151.414 24.0179C151.498 24.1305 151.511 24.2201 151.511 24.3199C151.511 24.4479 151.376 24.5861 151.186 24.5861C151.028 24.5861 150.915 24.517 150.792 24.3429L150.096 23.35H149.899V24.2354C149.899 24.4683 149.748 24.5835 149.559 24.5835C149.369 24.5835 149.218 24.4683 149.218 24.2354V21.9143V21.9168ZM150.344 25.2745C151.442 25.2745 152.333 24.3916 152.333 23.1043C152.333 21.817 151.44 20.9341 150.344 20.9341C149.249 20.9341 148.356 21.8196 148.356 23.1043C148.356 24.389 149.234 25.2745 150.344 25.2745ZM150.344 20.2534C151.821 20.2534 153.195 21.2975 153.195 23.1043C153.195 24.9111 151.818 25.9552 150.344 25.9552C148.87 25.9552 147.493 24.9111 147.493 23.1043C147.493 21.2975 148.87 20.2534 150.344 20.2534Z" fill="#0078AD"/>
<path d="M27.2988 30.293H2.99168C1.34101 30.293 0 28.952 0 27.2988V2.99168C0 1.34101 1.34101 0 2.99168 0H27.2988C28.952 0 30.2905 1.34101 30.2905 2.99168V27.2988C30.2905 28.952 28.952 30.2905 27.2988 30.2905" fill="#0078AD"/>
<path d="M14.3877 4.27383H14.0013C11.9693 4.27383 10.6539 5.64555 10.6539 7.76967V8.19961C9.13372 8.45297 8.18427 9.56109 8.18427 11.1631V11.4011C8.18427 12.6731 8.84709 14.0217 10.6539 14.3058V19.5521C10.6539 23.7236 12.8369 26.0217 16.7959 26.0217C18.5029 26.0217 19.9744 25.4946 20.9443 24.5374C21.7044 23.8183 22.1062 22.897 22.1062 21.8733C22.1062 20.1203 20.7678 18.7588 19.6187 18.7588H19.3346L19.0454 18.8688L18.6308 19.0352L18.3775 19.4063C18.1727 19.7057 17.968 19.7441 17.7786 19.7441C17.753 19.7441 17.73 19.7441 17.7095 19.7441C17.6814 19.6417 17.6456 19.437 17.6456 19.0761V14.3621H18.7307C20.7038 14.3621 21.9296 13.2054 21.9296 11.3448V11.0761C21.9296 9.65834 21.0979 8.14587 18.7614 8.14587H17.707V7.77479C17.707 5.58669 16.4658 4.27894 14.3903 4.27894M14.3903 5.75047C15.4907 5.75047 16.2354 6.22648 16.2354 7.77223V9.6174H18.7639C19.9539 9.6174 20.4607 10.1216 20.4607 11.0761V11.3448C20.4607 12.3557 19.9258 12.8906 18.7358 12.8906H16.1766V19.0787C16.1766 20.5067 16.6219 21.2207 17.7812 21.2207C18.6155 21.2207 19.2092 20.8036 19.5957 20.238C19.6033 20.2354 19.611 20.2329 19.6212 20.2329C19.8234 20.2329 20.6372 20.8241 20.6372 21.8733C20.6372 22.4978 20.3992 23.0326 19.9232 23.4779C19.2681 24.1331 18.1983 24.5502 16.7985 24.5502C13.6174 24.5502 12.128 22.856 12.128 19.5521V12.888H11.3858C10.1958 12.888 9.66091 12.3532 9.66091 11.4011V11.1631C9.66091 10.1804 10.1958 9.61484 11.3551 9.61484H12.128V7.76967C12.128 6.40051 12.8138 5.74791 14.0038 5.74791H14.3903V5.75047Z" fill="white"/>
</g>
<defs>
<clipPath id="clip0_1384_133">
<rect width="153.198" height="32" fill="white"/>
</clipPath>
</defs>
</svg>
